<?xml version="1.0" encoding="UTF-8" ?>
<!DOCTYPE svg PUBLIC "-//W3C//DTD SVG 1.1//EN" "http://www.w3.org/Graphics/SVG/1.1/DTD/svg11.dtd">
<svg width="340pt" height="257pt" viewBox="0 0 340 257" version="1.1" xmlns="http://www.w3.org/2000/svg">
<g id="#ffffffff">
<path fill="#ffffff" opacity="1.00" d=" M 80.33 35.36 C 89.76 31.77 99.89 30.36 109.94 30.40 C 149.98 30.36 190.01 30.37 230.04 30.40 C 248.99 30.26 268.77 36.02 282.55 49.52 C 296.80 63.38 302.64 83.63 303.13 103.06 C 303.30 131.87 303.11 160.68 303.23 189.48 C 290.06 189.69 276.89 189.54 263.72 189.56 C 263.71 162.38 263.72 135.20 263.72 108.02 C 263.73 101.24 263.36 94.31 261.13 87.87 C 257.73 80.72 252.19 74.20 244.76 71.11 C 235.81 66.84 225.71 66.54 216.00 65.85 C 185.69 65.78 155.38 65.83 125.07 65.83 C 112.88 66.39 99.78 67.13 89.54 74.56 C 83.80 79.66 78.57 86.10 77.32 93.89 C 76.31 98.52 76.10 103.27 76.14 107.99 C 76.18 123.72 76.09 139.45 76.18 155.18 C 94.15 155.17 112.11 155.15 130.07 155.19 C 137.67 155.18 145.43 155.71 152.85 153.74 C 157.92 152.54 161.66 148.70 165.85 145.86 C 169.70 141.51 170.85 135.49 171.75 129.92 C 153.59 130.37 135.40 129.95 117.23 130.14 C 117.07 118.29 117.22 106.43 117.15 94.57 C 152.19 94.57 187.22 94.54 222.25 94.59 C 221.13 109.58 219.67 124.68 214.97 139.05 C 206.93 168.22 177.93 188.98 148.02 189.49 C 110.90 189.53 73.77 189.52 36.65 189.50 C 36.72 160.67 36.61 131.84 36.70 103.01 C 37.18 89.93 39.59 76.55 45.92 64.95 C 52.99 51.13 65.63 40.30 80.33 35.36 Z" />
<path fill="#ffffff" opacity="1.00" d=" M 236.48 197.64 C 245.57 205.36 255.12 212.53 264.29 220.15 C 264.40 213.49 264.31 206.82 264.34 200.16 C 265.75 200.16 267.16 200.17 268.57 200.18 C 268.56 209.76 268.55 219.33 268.56 228.91 C 259.14 221.66 250.08 213.95 240.63 206.76 C 240.63 213.38 240.67 220.00 240.62 226.62 C 239.22 226.61 237.83 226.60 236.44 226.60 C 236.47 216.95 236.41 207.29 236.48 197.64 Z" />
<path fill="#ffffff" opacity="1.00" d=" M 47.22 200.30 C 54.41 199.95 61.62 200.25 68.81 200.15 C 68.79 201.56 68.77 202.97 68.75 204.39 C 62.14 204.40 55.52 204.35 48.91 204.41 C 46.10 204.40 42.49 205.25 41.63 208.34 C 40.36 212.92 41.00 217.72 40.84 222.41 C 46.89 222.21 52.98 222.74 59.00 222.12 C 62.26 221.56 63.70 218.42 64.50 215.57 C 59.85 215.40 55.21 215.50 50.56 215.50 C 50.52 214.47 50.45 212.42 50.41 211.40 C 56.58 211.16 62.76 211.32 68.94 211.32 C 68.58 215.70 67.95 220.39 64.94 223.82 C 62.59 226.11 59.18 226.62 56.03 226.61 C 49.50 226.65 42.97 226.64 36.43 226.60 C 36.54 221.51 36.31 216.41 36.54 211.33 C 36.86 205.69 41.45 200.58 47.22 200.30 Z" />
<path fill="#ffffff" opacity="1.00" d=" M 71.05 207.95 C 72.18 203.04 77.24 200.32 81.98 200.20 C 88.77 200.07 95.57 200.17 102.37 200.16 C 102.37 208.98 102.38 217.79 102.37 226.61 C 100.96 226.61 99.55 226.62 98.14 226.63 C 98.14 222.91 98.14 219.20 98.16 215.49 C 90.26 215.47 82.35 215.49 74.45 215.48 C 74.46 219.19 74.46 222.89 74.47 226.60 C 73.06 226.60 71.65 226.61 70.24 226.61 C 70.65 220.41 69.47 214.02 71.05 207.95 M 80.03 204.69 C 76.65 204.90 74.98 208.34 74.52 211.28 C 82.39 211.30 90.27 211.26 98.14 211.31 C 97.96 209.06 98.65 206.48 97.79 204.43 C 91.88 204.34 85.92 203.97 80.03 204.69 Z" />
<path fill="#ffffff" opacity="1.00" d=" M 110.83 201.56 C 116.34 199.09 122.54 200.54 128.37 200.13 C 128.40 200.73 128.46 201.95 128.48 202.55 C 134.40 199.19 141.39 199.93 147.91 199.90 C 148.37 208.79 147.99 217.71 148.08 226.61 C 146.58 226.60 145.08 226.60 143.59 226.60 C 143.60 219.18 143.57 211.76 143.61 204.33 C 138.62 204.53 131.08 202.93 128.95 209.03 C 127.91 214.82 128.69 220.76 128.44 226.62 C 127.03 226.61 125.62 226.60 124.22 226.59 C 124.21 219.16 124.34 211.72 124.16 204.28 C 119.28 204.69 112.23 202.84 109.61 208.37 C 107.90 214.27 109.13 220.56 108.76 226.63 C 107.35 226.61 105.93 226.60 104.52 226.60 C 104.65 221.11 104.33 215.62 104.67 210.14 C 105.39 206.65 107.35 202.94 110.83 201.56 Z" />
<path fill="#ffffff" opacity="1.00" d=" M 160.58 200.36 C 167.92 199.87 175.30 200.28 182.66 200.16 C 182.64 201.57 182.63 202.98 182.61 204.40 C 175.19 204.53 167.74 204.06 160.34 204.63 C 156.94 204.98 154.98 208.10 154.66 211.27 C 163.99 211.32 173.32 211.26 182.65 211.30 C 182.64 212.69 182.64 214.09 182.64 215.48 C 173.34 215.49 164.03 215.48 154.73 215.49 C 154.72 217.80 154.72 220.10 154.73 222.41 C 164.04 222.38 173.35 222.34 182.66 222.43 C 182.64 223.82 182.63 225.21 182.62 226.60 C 171.85 226.65 161.07 226.64 150.30 226.61 C 150.42 221.44 150.18 216.25 150.44 211.08 C 150.85 205.74 155.09 200.82 160.58 200.36 Z" />
<path fill="#ffffff" opacity="1.00" d=" M 202.07 208.22 C 203.15 203.26 208.14 200.33 212.96 200.21 C 219.78 200.05 226.61 200.21 233.44 200.14 C 233.38 205.39 233.63 210.65 233.32 215.89 C 233.20 221.37 228.41 226.32 222.92 226.51 C 215.74 226.77 208.54 226.57 201.35 226.60 C 201.68 220.49 200.60 214.22 202.07 208.22 M 212.41 204.47 C 209.29 204.53 206.37 206.78 205.88 209.92 C 205.25 214.05 205.65 218.24 205.55 222.40 C 212.17 221.97 219.06 223.34 225.50 221.50 C 231.34 218.02 228.72 209.91 229.16 204.31 C 223.58 204.52 217.99 204.23 212.41 204.47 Z" />
<path fill="#ffffff" opacity="1.00" d=" M 273.06 205.11 C 275.22 201.31 279.90 200.16 283.97 200.15 C 290.36 200.16 296.75 200.11 303.14 200.19 C 303.15 201.57 303.17 202.97 303.18 204.36 C 296.09 204.49 288.99 204.23 281.90 204.47 C 278.17 204.50 275.24 207.65 274.98 211.29 C 284.37 211.31 293.76 211.25 303.15 211.32 C 303.17 212.67 303.18 214.03 303.21 215.39 C 293.78 215.64 284.34 215.36 274.91 215.52 C 274.91 217.80 274.90 220.09 274.90 222.38 C 284.33 222.45 293.76 222.25 303.19 222.50 C 303.20 223.50 303.22 225.49 303.24 226.49 C 292.39 226.74 281.53 226.68 270.69 226.53 C 271.38 219.43 269.04 211.51 273.06 205.11 Z" />
</g>
<g id="#ca2b49ff">
<path fill="#ca2b49" opacity="1.00" d=" M 65.67 0.00 L 340.00 0.00 L 340.00 191.62 C 339.30 209.21 331.22 226.29 318.45 238.35 C 306.98 249.13 291.78 255.90 276.07 257.00 L 0.00 257.00 L 0.00 71.57 C 1.37 55.82 7.04 40.36 16.78 27.86 C 28.37 12.45 46.26 1.50 65.67 0.00 M 80.33 35.36 C 65.63 40.30 52.99 51.13 45.92 64.95 C 39.59 76.55 37.18 89.93 36.70 103.01 C 36.61 131.84 36.72 160.67 36.65 189.50 C 73.77 189.52 110.90 189.53 148.02 189.49 C 177.93 188.98 206.93 168.22 214.97 139.05 C 219.67 124.68 221.13 109.58 222.25 94.59 C 187.22 94.54 152.19 94.57 117.15 94.57 C 117.22 106.43 117.07 118.29 117.23 130.14 C 135.40 129.95 153.59 130.37 171.75 129.92 C 170.85 135.49 169.70 141.51 165.85 145.86 C 161.66 148.70 157.92 152.54 152.85 153.74 C 145.43 155.71 137.67 155.18 130.07 155.19 C 112.11 155.15 94.15 155.17 76.18 155.18 C 76.09 139.45 76.18 123.72 76.14 107.99 C 76.10 103.27 76.31 98.52 77.32 93.89 C 78.57 86.10 83.80 79.66 89.54 74.56 C 99.78 67.13 112.88 66.39 125.07 65.83 C 155.38 65.83 185.69 65.78 216.00 65.85 C 225.71 66.54 235.81 66.84 244.76 71.11 C 252.19 74.20 257.73 80.72 261.13 87.87 C 263.36 94.31 263.73 101.24 263.72 108.02 C 263.72 135.20 263.71 162.38 263.72 189.56 C 276.89 189.54 290.06 189.69 303.23 189.48 C 303.11 160.68 303.30 131.87 303.13 103.06 C 302.64 83.63 296.80 63.38 282.55 49.52 C 268.77 36.02 248.99 30.26 230.04 30.40 C 190.01 30.37 149.98 30.36 109.94 30.40 C 99.89 30.36 89.76 31.77 80.33 35.36 M 236.48 197.64 C 236.41 207.29 236.47 216.95 236.44 226.60 C 237.83 226.60 239.22 226.61 240.62 226.62 C 240.67 220.00 240.63 213.38 240.63 206.76 C 250.08 213.95 259.14 221.66 268.56 228.91 C 268.55 219.33 268.56 209.76 268.57 200.18 C 267.16 200.17 265.75 200.16 264.34 200.16 C 264.31 206.82 264.40 213.49 264.29 220.15 C 255.12 212.53 245.57 205.36 236.48 197.64 M 47.22 200.30 C 41.45 200.58 36.86 205.69 36.54 211.33 C 36.31 216.41 36.54 221.51 36.43 226.60 C 42.97 226.64 49.50 226.65 56.03 226.61 C 59.18 226.62 62.59 226.11 64.94 223.82 C 67.95 220.39 68.58 215.70 68.94 211.32 C 62.76 211.32 56.58 211.16 50.41 211.40 C 50.45 212.42 50.52 214.47 50.56 215.50 C 55.21 215.50 59.85 215.40 64.50 215.57 C 63.70 218.42 62.26 221.56 59.00 222.12 C 52.98 222.74 46.89 222.21 40.84 222.41 C 41.00 217.72 40.36 212.92 41.63 208.34 C 42.49 205.25 46.10 204.40 48.91 204.41 C 55.52 204.35 62.14 204.40 68.75 204.39 C 68.77 202.97 68.79 201.56 68.81 200.15 C 61.62 200.25 54.41 199.95 47.22 200.30 M 71.05 207.95 C 69.47 214.02 70.65 220.41 70.24 226.61 C 71.65 226.61 73.06 226.60 74.47 226.60 C 74.46 222.89 74.46 219.19 74.45 215.48 C 82.35 215.49 90.26 215.47 98.16 215.49 C 98.14 219.20 98.14 222.91 98.14 226.63 C 99.55 226.62 100.96 226.61 102.37 226.61 C 102.38 217.79 102.37 208.98 102.37 200.16 C 95.57 200.17 88.77 200.07 81.98 200.20 C 77.24 200.32 72.18 203.04 71.05 207.95 M 110.83 201.56 C 107.35 202.94 105.39 206.65 104.67 210.14 C 104.33 215.62 104.65 221.11 104.52 226.60 C 105.93 226.60 107.35 226.61 108.76 226.63 C 109.13 220.56 107.90 214.27 109.61 208.37 C 112.23 202.84 119.28 204.69 124.16 204.28 C 124.34 211.72 124.21 219.16 124.22 226.59 C 125.62 226.60 127.03 226.61 128.44 226.62 C 128.69 220.76 127.91 214.82 128.95 209.03 C 131.08 202.93 138.62 204.53 143.61 204.33 C 143.57 211.76 143.60 219.18 143.59 226.60 C 145.08 226.60 146.58 226.60 148.08 226.61 C 147.99 217.71 148.37 208.79 147.91 199.90 C 141.39 199.93 134.40 199.19 128.48 202.55 C 128.46 201.95 128.40 200.73 128.37 200.13 C 122.54 200.54 116.34 199.09 110.83 201.56 M 160.58 200.36 C 155.09 200.82 150.85 205.74 150.44 211.08 C 150.18 216.25 150.42 221.44 150.30 226.61 C 161.07 226.64 171.85 226.65 182.62 226.60 C 182.63 225.21 182.64 223.82 182.66 222.43 C 173.35 222.34 164.04 222.38 154.73 222.41 C 154.72 220.10 154.72 217.80 154.73 215.49 C 164.03 215.48 173.34 215.49 182.64 215.48 C 182.64 214.09 182.64 212.69 182.65 211.30 C 173.32 211.26 163.99 211.32 154.66 211.27 C 154.98 208.10 156.94 204.98 160.34 204.63 C 167.74 204.06 175.19 204.53 182.61 204.40 C 182.63 202.98 182.64 201.57 182.66 200.16 C 175.30 200.28 167.92 199.87 160.58 200.36 M 202.07 208.22 C 200.60 214.22 201.68 220.49 201.35 226.60 C 208.54 226.57 215.74 226.77 222.92 226.51 C 228.41 226.32 233.20 221.37 233.32 215.89 C 233.63 210.65 233.38 205.39 233.44 200.14 C 226.61 200.21 219.78 200.05 212.96 200.21 C 208.14 200.33 203.15 203.26 202.07 208.22 M 273.06 205.11 C 269.04 211.51 271.38 219.43 270.69 226.53 C 281.53 226.68 292.39 226.74 303.24 226.49 C 303.22 225.49 303.20 223.50 303.19 222.50 C 293.76 222.25 284.33 222.45 274.90 222.38 C 274.90 220.09 274.91 217.80 274.91 215.52 C 284.34 215.36 293.78 215.64 303.21 215.39 C 303.18 214.03 303.17 212.67 303.15 211.32 C 293.76 211.25 284.37 211.31 274.98 211.29 C 275.24 207.65 278.17 204.50 281.90 204.47 C 288.99 204.23 296.09 204.49 303.18 204.36 C 303.17 202.97 303.15 201.57 303.14 200.19 C 296.75 200.11 290.36 200.16 283.97 200.15 C 279.90 200.16 275.22 201.31 273.06 205.11 Z" />
<path fill="#ca2b49" opacity="1.00" d=" M 80.03 204.69 C 85.92 203.97 91.88 204.34 97.79 204.43 C 98.65 206.48 97.96 209.06 98.14 211.31 C 90.27 211.26 82.39 211.30 74.52 211.28 C 74.98 208.34 76.65 204.90 80.03 204.69 Z" />
<path fill="#ca2b49" opacity="1.00" d=" M 212.41 204.47 C 217.99 204.23 223.58 204.52 229.16 204.31 C 228.72 209.91 231.34 218.02 225.50 221.50 C 219.06 223.34 212.17 221.97 205.55 222.40 C 205.65 218.24 205.25 214.05 205.88 209.92 C 206.37 206.78 209.29 204.53 212.41 204.47 Z" />
</g>
</svg>
